<svg width="108" height="123" viewBox="0 0 108 123" fill="none" xmlns="http://www.w3.org/2000/svg">
<g clip-path="url(#clip0_1438_1213)">
<path d="M0.53125 30.7635C18.3891 40.8669 36.2469 50.9719 54.1032 61.0753C71.7704 50.9146 89.4375 40.754 107.104 30.5933C89.3253 20.3971 71.5458 10.1978 53.7664 0C36.0208 10.255 18.2768 20.5101 0.53125 30.7635Z" fill="#A6D4EB"/>
<path d="M0.53125 30.5371V91.2735L54.1032 122.831V60.8489L0.53125 30.5371Z" fill="#337AA3"/>
<path d="M54.1035 60.8495V123L107.105 92.0092V30.3691C89.4378 40.5298 71.7706 50.6904 54.1035 60.8511V60.8495Z" fill="#73AACD"/>
<mask id="mask0_1438_1213" style="mask-type:luminance" maskUnits="userSpaceOnUse" x="37" y="22" width="34" height="32">
<path d="M40.5339 38.9532C40.5339 31.5734 46.562 25.569 53.971 25.569C61.38 25.569 67.4081 31.5734 67.4081 38.9532V40.1801H70.5364V38.9532C70.5364 29.8546 63.1057 22.4531 53.9726 22.4531C44.8395 22.4531 37.4072 29.8546 37.4072 38.9532V53.2053H40.5354V38.9532H40.5339Z" fill="white"/>
</mask>
<g mask="url(#mask0_1438_1213)">
<path d="M70.5355 22.4531H37.4062V53.2037H70.5355V22.4531Z" fill="white"/>
</g>
<path d="M40.9334 53.6021H37.0068V38.9524C37.0068 29.6356 44.6162 22.0547 53.9714 22.0547C63.3266 22.0547 70.9344 29.634 70.9344 38.9524V40.5768H67.0078V38.9524C67.0078 31.7923 61.1598 25.9658 53.9698 25.9658C46.7799 25.9658 40.9319 31.7923 40.9319 38.9524V53.6021H40.9334ZM37.8052 52.8068H40.1351V38.9524C40.1351 31.3529 46.3418 25.1706 53.9714 25.1706C61.6009 25.1706 67.8077 31.3529 67.8077 38.9524V39.7816H70.1376V38.9524C70.1376 30.0734 62.8855 22.8499 53.973 22.8499C45.0604 22.8499 37.8068 30.0734 37.8068 38.9524V52.8068H37.8052Z" fill="white"/>
<path d="M54.1029 86.1328C65.6506 86.1328 75.0118 76.7146 75.0118 65.0967C75.0118 53.4787 65.6506 44.0605 54.1029 44.0605C42.5551 44.0605 33.1938 53.4787 33.1938 65.0967C33.1938 76.7146 42.5551 86.1328 54.1029 86.1328Z" fill="#C1E1F1"/>
<path d="M54.1033 87.7251C41.7018 87.7251 31.6118 77.5738 31.6118 65.097C31.6118 52.6201 41.7018 42.4688 54.1033 42.4688C66.5047 42.4688 76.5947 52.6201 76.5947 65.097C76.5947 77.5738 66.5047 87.7251 54.1033 87.7251ZM54.1033 45.6514C43.4457 45.6514 34.7752 54.3747 34.7752 65.097C34.7752 75.8193 43.4457 84.5425 54.1033 84.5425C64.7608 84.5425 73.4313 75.8193 73.4313 65.097C73.4313 54.3747 64.7608 45.6514 54.1033 45.6514Z" fill="white"/>
<path d="M58.6024 60.5886C58.6024 57.7881 56.0787 55.5818 53.1952 56.145C51.4281 56.49 50.0087 57.9289 49.6765 59.7098C49.3259 61.5866 50.1271 63.3025 51.4897 64.2788C51.096 67.3546 50.7007 70.4321 50.307 73.508C50.2886 73.6472 50.3978 73.771 50.5362 73.771H58.0456C58.184 73.771 58.2917 73.6457 58.2702 73.508C57.7934 70.398 57.3167 67.2897 56.8399 64.1797C57.9118 63.3504 58.6039 62.0523 58.6039 60.5886H58.6024Z" fill="#337AA3"/>
</g>
<defs>
<clipPath id="clip0_1438_1213">
<rect width="108" height="123" fill="white"/>
</clipPath>
</defs>
</svg>
