<svg width="126" height="193" viewBox="0 0 126 193" fill="none" xmlns="http://www.w3.org/2000/svg">
<g clip-path="url(#clip0_1438_1226)">
<path d="M61 123C86.9574 123 108 101.734 108 75.5C108 49.2665 86.9574 28 61 28C35.0426 28 14 49.2665 14 75.5C14 101.734 35.0426 123 61 123Z" fill="white"/>
<path d="M13.1738 176.012C12.5744 176.012 12.0629 175.812 11.6394 175.421C11.2158 175.029 11 174.549 11 173.982C11 173.447 11.2158 172.983 11.6394 172.591C12.0629 172.2 12.5744 172 13.1738 172C13.7413 172 14.2288 172.2 14.6364 172.591C15.044 172.983 15.2518 173.447 15.2518 173.982C15.2518 174.549 15.044 175.029 14.6364 175.421C14.2288 175.812 13.7413 176.012 13.1738 176.012ZM13.1259 192.995C12.7183 192.995 12.3507 192.867 12.015 192.619C11.6793 192.372 11.5195 192.004 11.5195 191.533V180.208C11.5195 179.672 11.6873 179.273 12.015 179.009C12.3427 178.745 12.7183 178.609 13.1259 178.609C13.5335 178.609 13.9011 178.745 14.2368 179.009C14.5644 179.273 14.7323 179.68 14.7323 180.208V191.533C14.7323 192.004 14.5644 192.364 14.2368 192.619C13.9091 192.867 13.5335 192.995 13.1259 192.995Z" fill="white"/>
<path d="M24.2589 192.995C22.7165 192.963 21.3578 192.603 20.175 191.908C19.0002 191.213 18.185 190.349 17.7454 189.31C17.6495 189.063 17.6016 188.839 17.6016 188.647C17.6016 188.208 17.7934 187.848 18.169 187.56C18.5446 187.28 18.9362 187.137 19.3438 187.137C19.9752 187.137 20.4148 187.4 20.6625 187.936C21.3258 189.478 22.5646 190.245 24.3868 190.245C25.4258 190.245 26.2489 189.918 26.8643 189.254C27.4797 188.591 27.7834 187.84 27.7834 186.993C27.7834 185.738 27.3598 184.883 26.5127 184.443C25.6655 184.004 24.6425 183.78 23.4437 183.78C22.9402 183.812 22.5806 183.684 22.3568 183.404C22.133 183.125 22.0291 182.805 22.0291 182.461C22.0291 182.15 22.133 181.854 22.3328 181.59C22.5406 181.326 22.8603 181.19 23.2999 181.19C24.5866 181.19 25.5057 180.959 26.0571 180.503C26.6086 180.048 26.8803 179.36 26.8803 178.449C26.8803 177.754 26.6645 177.186 26.241 176.723C25.8174 176.267 25.21 176.036 24.4268 176.036C23.5157 176.036 22.8363 176.211 22.3968 176.555C21.9572 176.899 21.6136 177.298 21.3578 177.738C21.134 178.05 20.9023 178.281 20.6545 178.425C20.3988 178.569 20.151 178.641 19.8953 178.641C19.5197 178.641 19.168 178.497 18.8323 178.217C18.4967 177.938 18.3368 177.586 18.3368 177.178C18.3368 176.987 18.3848 176.803 18.4807 176.611C18.9202 175.7 19.6395 174.933 20.6305 174.325C21.6216 173.71 22.8363 173.406 24.2829 173.406C26.2649 173.406 27.7195 173.902 28.6466 174.893C29.5736 175.884 30.0372 177.043 30.0372 178.361C30.0372 179.145 29.8294 179.912 29.4218 180.647C29.0142 181.382 28.4787 181.942 27.8154 182.325C28.6625 182.605 29.4138 183.173 30.0532 184.028C30.7005 184.875 31.0202 185.834 31.0202 186.905C31.0202 188.639 30.4288 190.094 29.2539 191.268C28.0711 192.451 26.4008 193.019 24.227 192.995H24.2589Z" fill="white"/>
<path d="M48.8897 191.486C48.3543 191.893 47.5231 192.253 46.3882 192.548C45.2534 192.844 44.1425 192.996 43.0396 192.996C41.2174 192.996 39.579 192.572 38.1325 191.725C36.6859 190.878 35.5351 189.695 34.6879 188.185C33.8407 186.674 33.4092 184.948 33.4092 182.99C33.4092 181.032 33.8168 179.37 34.64 177.891C35.4551 176.413 36.614 175.254 38.1085 174.423C39.603 173.591 41.3373 173.176 43.3273 173.176C44.1105 173.176 44.8937 173.24 45.661 173.368C46.4282 173.495 47.2114 173.711 47.9946 174.031C48.3063 174.191 48.5381 174.399 48.682 174.67C48.8258 174.934 48.8977 175.198 48.8977 175.446C48.8977 175.853 48.7619 176.213 48.4981 176.532C48.2264 176.844 47.8748 177.004 47.4352 177.004C47.2514 177.004 47.0276 176.956 46.7719 176.86C46.2684 176.668 45.677 176.5 45.0056 176.341C44.3263 176.181 43.663 176.109 42.9996 176.109C41.7449 176.109 40.642 176.429 39.6989 177.076C38.7559 177.723 38.0206 178.578 37.5011 179.649C36.9816 180.72 36.7259 181.895 36.7259 183.19C36.7259 185.108 37.3093 186.746 38.4681 188.097C39.635 189.448 41.1694 190.127 43.0955 190.127C43.9427 190.127 44.7818 189.991 45.597 189.727C46.4122 189.464 47.0276 189.168 47.4352 188.856C47.7789 188.664 48.0826 188.576 48.3303 188.576C48.7379 188.576 49.0656 188.728 49.3213 189.024C49.5691 189.32 49.6969 189.663 49.6969 190.039C49.6969 190.606 49.4332 191.094 48.8977 191.502L48.8897 191.486Z" fill="white"/>
<path d="M62.293 180.16C62.293 179.72 62.4448 179.353 62.7405 179.049C63.0442 178.753 63.4278 178.602 63.8994 178.602C64.3389 178.602 64.7145 178.753 65.0342 179.049C65.3459 179.353 65.5058 179.72 65.5058 180.16V186.817C65.5058 188.232 65.1941 189.399 64.5627 190.31C63.9313 191.221 63.1161 191.9 62.1091 192.34C61.1021 192.779 60.0312 193.003 58.9043 193.003C57.7775 193.003 56.6985 192.779 55.6915 192.34C54.6845 191.9 53.8694 191.221 53.238 190.31C52.6066 189.399 52.2949 188.232 52.2949 186.817V180.16C52.2949 179.72 52.4468 179.353 52.7425 179.049C53.0382 178.745 53.4298 178.602 53.9013 178.602C54.3409 178.602 54.7165 178.753 55.0362 179.049C55.3479 179.353 55.5077 179.72 55.5077 180.16V186.817C55.5077 187.984 55.8514 188.815 56.5467 189.319C57.242 189.822 58.0252 190.07 58.9043 190.07C59.7835 190.07 60.6066 189.822 61.286 189.319C61.9653 188.815 62.3009 187.984 62.3009 186.817V180.16H62.293Z" fill="white"/>
<path d="M76.3987 192.995C75.5196 192.995 74.7284 192.843 74.0411 192.547C73.3458 192.252 72.7544 191.844 72.2509 191.349V191.54C72.2509 192.012 72.0831 192.372 71.7554 192.627C71.4277 192.883 71.0521 193.003 70.6445 193.003C70.2369 193.003 69.8693 192.875 69.5336 192.627C69.2059 192.38 69.0381 192.012 69.0381 191.54V173.606C69.0381 173.071 69.2059 172.671 69.5336 172.407C69.8613 172.144 70.2369 172.008 70.6445 172.008C71.0521 172.008 71.4197 172.144 71.7554 172.407C72.0831 172.671 72.2509 173.079 72.2509 173.606V180.216C72.7544 179.712 73.3538 179.321 74.0411 179.033C74.7284 178.745 75.5196 178.609 76.3987 178.609C77.7814 178.609 79.0041 178.913 80.0511 179.528C81.0981 180.144 81.9292 180.983 82.5286 182.054C83.128 183.125 83.4237 184.332 83.4237 185.69C83.4237 187.049 83.12 188.328 82.5286 189.438C81.9292 190.557 81.1061 191.428 80.0511 192.06C78.9962 192.691 77.7814 193.003 76.3987 193.003V192.995ZM76.111 190.07C77.3418 190.07 78.3328 189.67 79.0841 188.871C79.8353 188.072 80.2189 187.009 80.2189 185.682C80.2189 184.356 79.8433 183.42 79.0841 182.661C78.3248 181.91 77.3338 181.526 76.111 181.526C74.8883 181.526 73.9692 181.902 73.2819 182.661C72.5865 183.42 72.2429 184.427 72.2429 185.682C72.2429 187.001 72.5865 188.064 73.2819 188.871C73.9772 189.67 74.9122 190.07 76.111 190.07Z" fill="white"/>
<path d="M93.2936 192.995C90.9359 192.995 89.0978 192.316 87.7711 190.965C86.4524 189.615 85.7891 187.784 85.7891 185.491C85.7891 183.477 86.4604 181.83 87.7951 180.536C89.1297 179.249 90.856 178.602 92.9579 178.602C95.0598 178.602 96.6422 179.193 97.865 180.368C99.0958 181.551 99.7032 183.005 99.7032 184.731C99.7032 185.427 99.5194 185.946 99.1597 186.29C98.8001 186.634 98.3366 186.809 97.7691 186.809H89.5613C89.2496 186.809 89.1377 186.985 89.2336 187.329C89.4814 188.208 89.9929 188.895 90.7681 189.383C91.5433 189.87 92.4145 190.118 93.3895 190.118C94.1088 190.118 94.8121 190.022 95.4914 189.838C96.1707 189.647 96.7541 189.367 97.2576 188.991C97.4175 188.863 97.6173 188.799 97.873 188.799C98.2167 188.799 98.5364 188.951 98.8161 189.247C99.0958 189.551 99.2397 189.902 99.2397 190.31C99.2397 190.502 99.2077 190.686 99.1437 190.877C99.0798 191.069 98.936 191.253 98.7202 191.445C97.897 192.044 97.0259 192.452 96.0988 192.676C95.1717 192.899 94.2366 193.003 93.2936 193.003V192.995ZM96.0348 184.364C96.2187 184.364 96.3146 184.268 96.3146 184.084C96.3146 183.357 95.9949 182.733 95.3475 182.198C94.7002 181.663 93.909 181.399 92.9659 181.399C92.1427 181.399 91.3675 181.623 90.6322 182.062C89.897 182.502 89.4414 183.085 89.2896 183.804V183.852C89.2576 183.98 89.2496 184.084 89.2656 184.18C89.2816 184.276 89.4174 184.324 89.6652 184.324L96.0348 184.372V184.364Z" fill="white"/>
<path d="M107.448 192.995C106.537 192.995 105.61 192.876 104.667 192.644C103.724 192.412 102.892 192.036 102.165 191.533C101.789 191.189 101.598 190.814 101.598 190.398C101.598 189.982 101.765 189.631 102.093 189.311C102.421 188.999 102.796 188.84 103.204 188.84C103.428 188.84 103.644 188.903 103.867 189.031C104.435 189.375 105.09 189.655 105.825 189.855C106.561 190.062 107.264 190.158 107.927 190.158C108.591 190.158 109.102 190.046 109.558 189.831C110.013 189.615 110.245 189.247 110.245 188.744C110.245 188.24 110.021 187.865 109.582 187.609C109.142 187.361 108.383 187.169 107.32 187.041C106.88 186.977 106.353 186.897 105.738 186.81C105.122 186.714 104.515 186.546 103.923 186.29C103.324 186.034 102.82 185.659 102.413 185.155C102.005 184.652 101.797 183.972 101.797 183.125C101.797 181.743 102.309 180.64 103.332 179.825C104.355 179.009 105.73 178.594 107.464 178.594C108.471 178.594 109.422 178.722 110.317 178.969C111.212 179.225 111.883 179.537 112.323 179.912C112.667 180.192 112.842 180.528 112.842 180.903C112.842 181.311 112.699 181.671 112.419 181.99C112.131 182.302 111.788 182.462 111.38 182.462C111.156 182.462 110.956 182.414 110.765 182.318C110.261 182.038 109.702 181.823 109.086 181.679C108.471 181.535 107.879 181.463 107.32 181.463C106.657 181.463 106.097 181.567 105.642 181.767C105.186 181.966 104.954 182.294 104.954 182.734C104.954 183.045 105.09 183.325 105.354 183.557C105.618 183.789 106.321 183.988 107.456 184.148C107.991 184.212 108.599 184.308 109.27 184.428C109.949 184.556 110.597 184.748 111.228 185.019C111.859 185.283 112.379 185.707 112.787 186.274C113.194 186.842 113.402 187.609 113.402 188.584C113.402 189.559 113.114 190.414 112.555 191.061C111.987 191.709 111.26 192.188 110.365 192.5C109.47 192.812 108.503 192.971 107.464 192.971L107.448 192.995Z" fill="white"/>
<path d="M0 36.266C21.0519 48.1765 42.1039 60.0888 63.154 71.9993C83.9811 60.0213 104.808 48.0433 125.635 36.0653C104.676 24.0454 83.7164 12.0218 62.757 0C41.8374 12.0893 20.9196 24.1785 0 36.266Z" fill="#A6D4EB"/>
<path d="M0 36V107.6L63.154 144.802V71.7334L0 36Z" fill="#337AA3"/>
<path d="M63.1543 71.733V145L125.636 108.466V35.8008C104.809 47.7788 83.9814 59.7568 63.1543 71.7348V71.733Z" fill="#73AACD"/>
<mask id="mask0_1438_1226" style="mask-type:luminance" maskUnits="userSpaceOnUse" x="43" y="26" width="40" height="37">
<path d="M47.1591 45.9199C47.1591 37.2202 54.2654 30.142 62.9996 30.142C71.7338 30.142 78.8401 37.2202 78.8401 45.9199V47.3664H82.5279V45.9199C82.5279 35.1939 73.7681 26.4688 63.0014 26.4688C52.2348 26.4688 43.4731 35.1939 43.4731 45.9199V62.7212H47.1609V45.9199H47.1591Z" fill="white"/>
</mask>
<g mask="url(#mask0_1438_1226)">
<path d="M82.5264 26.4688H43.4717V62.7195H82.5264V26.4688Z" fill="white"/>
</g>
<path d="M47.6289 63.19H43V45.92C43 34.9368 51.9704 26 62.9989 26C74.0274 26 82.9959 34.935 82.9959 45.92V47.8351H78.367V45.92C78.367 37.4793 71.473 30.6107 62.997 30.6107C54.521 30.6107 47.6271 37.4793 47.6271 45.92V63.19H47.6289ZM43.9412 62.2525H46.6878V45.92C46.6878 36.9613 54.0047 29.6732 62.9989 29.6732C71.9931 29.6732 79.31 36.9613 79.31 45.92V46.8976H82.0566V45.92C82.0566 35.453 73.5074 26.9375 63.0007 26.9375C52.4941 26.9375 43.943 35.453 43.943 45.92V62.2525H43.9412Z" fill="white"/>
<path d="M63.1537 101.539C76.7669 101.539 87.8025 90.436 87.8025 76.7401C87.8025 63.0442 76.7669 51.9414 63.1537 51.9414C49.5405 51.9414 38.5049 63.0442 38.5049 76.7401C38.5049 90.436 49.5405 101.539 63.1537 101.539Z" fill="#C1E1F1"/>
<path d="M63.154 103.416C48.5344 103.416 36.6396 91.4485 36.6396 76.74C36.6396 62.0315 48.5344 50.0645 63.154 50.0645C77.7736 50.0645 89.6683 62.0315 89.6683 76.74C89.6683 91.4485 77.7736 103.416 63.154 103.416ZM63.154 53.8164C50.5903 53.8164 40.3689 64.0999 40.3689 76.74C40.3689 89.3801 50.5903 99.6636 63.154 99.6636C75.7177 99.6636 85.9392 89.3801 85.9392 76.74C85.9392 64.0999 75.7177 53.8164 63.154 53.8164Z" fill="white"/>
<path d="M68.4582 71.4246C68.4582 68.1232 65.4831 65.5222 62.0839 66.1862C60.0008 66.5929 58.3274 68.2892 57.9358 70.3886C57.5225 72.6011 58.467 74.6238 60.0733 75.7748C59.6092 79.4008 59.1433 83.0287 58.6792 86.6547C58.6574 86.8189 58.7861 86.9648 58.9493 86.9648H67.8019C67.9651 86.9648 68.092 86.8171 68.0666 86.6547C67.5046 82.9886 66.9426 79.3242 66.3806 75.658C67.6442 74.6804 68.46 73.1501 68.46 71.4246H68.4582Z" fill="#337AA3"/>
</g>
<defs>
<clipPath id="clip0_1438_1226">
<rect width="126" height="193" fill="white"/>
</clipPath>
</defs>
</svg>
